<svg width="40" height="40" viewBox="0 0 40 40" fill="none" xmlns="http://www.w3.org/2000/svg">
<path d="M8.33333 7.50007C8.33333 6.39498 8.74305 5.33516 9.47236 4.55374C10.2017 3.77233 11.1908 3.33333 12.2222 3.33333L27.7778 3.33333C28.8092 3.33333 29.7983 3.77233 30.5276 4.55374C31.2569 5.33516 31.6667 6.39498 31.6667 7.50007V35.6255C31.6666 35.8139 31.6188 35.9988 31.5284 36.1604C31.438 36.3221 31.3084 36.4544 31.1533 36.5433C30.9983 36.6323 30.8236 36.6745 30.648 36.6655C30.4723 36.6565 30.3022 36.5966 30.1558 36.4922L20 30.6275L9.84416 36.4922C9.69776 36.5966 9.52767 36.6565 9.35201 36.6655C9.17635 36.6745 9.0017 36.6323 8.84666 36.5433C8.69162 36.4544 8.562 36.3221 8.47161 36.1604C8.38121 35.9988 8.33342 35.8139 8.33333 35.6255V7.50007ZM12.2222 5.4167C11.7065 5.4167 11.2119 5.6362 10.8473 6.02691C10.4826 6.41761 10.2778 6.94752 10.2778 7.50007V33.6797L19.4614 28.5087C19.6209 28.395 19.8083 28.3343 20 28.3343C20.1917 28.3343 20.379 28.395 20.5386 28.5087L29.7222 33.6797V7.50007C29.7222 6.94752 29.5174 6.41761 29.1527 6.02691C28.7881 5.6362 28.2935 5.4167 27.7778 5.4167H12.2222Z" fill="#8A91AB"/>
</svg>
