<svg width="172" height="87" viewBox="0 0 172 87" fill="none" xmlns="http://www.w3.org/2000/svg">
<path d="M69.6875 30.2969L67.5469 38H65.3203L62.3359 26.7266H64.7812L66.5547 34.8906H66.6172L68.7266 26.7266H70.7188L72.8281 34.8906H72.8906L74.6719 26.7266H77.1172L74.125 38H71.8984L69.7578 30.2969H69.6875ZM81.0156 31.1328C80.5208 31.1328 80.1068 31.3021 79.7734 31.6406C79.4453 31.9792 79.2604 32.4115 79.2188 32.9375H82.7734C82.7474 32.401 82.5729 31.9661 82.25 31.6328C81.9323 31.2995 81.5208 31.1328 81.0156 31.1328ZM82.8047 35.4375H84.8984C84.7734 36.2604 84.362 36.9245 83.6641 37.4297C82.9714 37.9297 82.1094 38.1797 81.0781 38.1797C79.7917 38.1797 78.7812 37.7943 78.0469 37.0234C77.3177 36.2526 76.9531 35.1953 76.9531 33.8516C76.9531 32.513 77.3177 31.4453 78.0469 30.6484C78.776 29.8464 79.7578 29.4453 80.9922 29.4453C82.2057 29.4453 83.1719 29.8255 83.8906 30.5859C84.6094 31.3464 84.9688 32.3646 84.9688 33.6406V34.3359H79.1953V34.4766C79.1953 35.0755 79.3698 35.5625 79.7188 35.9375C80.0729 36.3073 80.5391 36.4922 81.1172 36.4922C81.5339 36.4922 81.8932 36.3984 82.1953 36.2109C82.4974 36.0182 82.7005 35.7604 82.8047 35.4375ZM89.3828 36.4844C89.888 36.4844 90.3151 36.3385 90.6641 36.0469C91.0182 35.75 91.1953 35.3776 91.1953 34.9297V34.3203L89.4297 34.4297C89.0026 34.4609 88.6719 34.5677 88.4375 34.75C88.2083 34.9323 88.0938 35.1719 88.0938 35.4688C88.0938 35.7812 88.2109 36.0286 88.4453 36.2109C88.6797 36.3932 88.9922 36.4844 89.3828 36.4844ZM88.6328 38.1328C87.8255 38.1328 87.1562 37.8958 86.625 37.4219C86.0938 36.9479 85.8281 36.3385 85.8281 35.5938C85.8281 34.8333 86.1094 34.237 86.6719 33.8047C87.2344 33.3724 88.0391 33.125 89.0859 33.0625L91.1953 32.9375V32.3828C91.1953 31.9974 91.0677 31.6953 90.8125 31.4766C90.5625 31.2578 90.2214 31.1484 89.7891 31.1484C89.3724 31.1484 89.0312 31.2422 88.7656 31.4297C88.5052 31.6172 88.3464 31.8698 88.2891 32.1875H86.2031C86.2448 31.3646 86.5964 30.7031 87.2578 30.2031C87.9193 29.6979 88.7969 29.4453 89.8906 29.4453C90.9635 29.4453 91.8229 29.7005 92.4688 30.2109C93.1146 30.7214 93.4375 31.3984 93.4375 32.2422V38H91.2344V36.7188H91.1875C90.9583 37.1562 90.6094 37.5026 90.1406 37.7578C89.6719 38.0078 89.1693 38.1328 88.6328 38.1328ZM95.5234 27.6953H97.8047V29.625H99.3516V31.3438H97.8047V35.3516C97.8047 35.9818 98.1328 36.2969 98.7891 36.2969C99.0026 36.2969 99.1875 36.2839 99.3438 36.2578V37.9375C99.0781 38 98.7161 38.0312 98.2578 38.0312C97.2734 38.0312 96.5703 37.8542 96.1484 37.5C95.7318 37.1458 95.5234 36.5599 95.5234 35.7422V31.3438H94.3438V29.625H95.5234V27.6953ZM100.656 38V26.7266H102.898V31.1172H102.945C103.169 30.5859 103.505 30.1797 103.953 29.8984C104.406 29.612 104.948 29.4688 105.578 29.4688C106.5 29.4688 107.216 29.75 107.727 30.3125C108.242 30.8698 108.5 31.6354 108.5 32.6094V38H106.219V33.0938C106.219 32.5469 106.083 32.1224 105.812 31.8203C105.547 31.513 105.159 31.3594 104.648 31.3594C104.117 31.3594 103.698 31.5312 103.391 31.875C103.089 32.2135 102.938 32.6615 102.938 33.2188V38H100.656ZM113.719 31.1328C113.224 31.1328 112.81 31.3021 112.477 31.6406C112.148 31.9792 111.964 32.4115 111.922 32.9375H115.477C115.451 32.401 115.276 31.9661 114.953 31.6328C114.635 31.2995 114.224 31.1328 113.719 31.1328ZM115.508 35.4375H117.602C117.477 36.2604 117.065 36.9245 116.367 37.4297C115.674 37.9297 114.812 38.1797 113.781 38.1797C112.495 38.1797 111.484 37.7943 110.75 37.0234C110.021 36.2526 109.656 35.1953 109.656 33.8516C109.656 32.513 110.021 31.4453 110.75 30.6484C111.479 29.8464 112.461 29.4453 113.695 29.4453C114.909 29.4453 115.875 29.8255 116.594 30.5859C117.312 31.3464 117.672 32.3646 117.672 33.6406V34.3359H111.898V34.4766C111.898 35.0755 112.073 35.5625 112.422 35.9375C112.776 36.3073 113.242 36.4922 113.82 36.4922C114.237 36.4922 114.596 36.3984 114.898 36.2109C115.201 36.0182 115.404 35.7604 115.508 35.4375ZM118.852 38V29.625H121.055V31.1328H121.102C121.247 30.6016 121.492 30.1953 121.836 29.9141C122.18 29.6328 122.599 29.4922 123.094 29.4922C123.333 29.4922 123.549 29.5208 123.742 29.5781V31.5859C123.529 31.4974 123.253 31.4531 122.914 31.4531C122.352 31.4531 121.914 31.6172 121.602 31.9453C121.289 32.2734 121.133 32.7318 121.133 33.3203V38H118.852ZM129.859 38.1953C128.214 38.1953 126.911 37.6771 125.953 36.6406C125 35.599 124.523 34.1719 124.523 32.3594C124.523 30.5521 125.003 29.1302 125.961 28.0938C126.919 27.0521 128.219 26.5312 129.859 26.5312C130.755 26.5312 131.568 26.7083 132.297 27.0625C133.031 27.4167 133.62 27.9167 134.062 28.5625C134.505 29.2083 134.755 29.9453 134.812 30.7734H132.516C132.406 30.0807 132.107 29.526 131.617 29.1094C131.133 28.6927 130.547 28.4844 129.859 28.4844C128.969 28.4844 128.258 28.8333 127.727 29.5312C127.195 30.2292 126.93 31.1693 126.93 32.3516C126.93 33.5547 127.193 34.5052 127.719 35.2031C128.245 35.8958 128.961 36.2422 129.867 36.2422C130.565 36.2422 131.151 36.0495 131.625 35.6641C132.099 35.2786 132.398 34.7526 132.523 34.0859H134.82C134.69 35.3411 134.177 36.3411 133.281 37.0859C132.385 37.8255 131.245 38.1953 129.859 38.1953ZM136.141 38V26.7266H138.383V31.1172H138.43C138.654 30.5859 138.99 30.1797 139.438 29.8984C139.891 29.612 140.432 29.4688 141.062 29.4688C141.984 29.4688 142.701 29.75 143.211 30.3125C143.727 30.8698 143.984 31.6354 143.984 32.6094V38H141.703V33.0938C141.703 32.5469 141.568 32.1224 141.297 31.8203C141.031 31.513 140.643 31.3594 140.133 31.3594C139.602 31.3594 139.182 31.5312 138.875 31.875C138.573 32.2135 138.422 32.6615 138.422 33.2188V38H136.141ZM149.203 31.1328C148.708 31.1328 148.294 31.3021 147.961 31.6406C147.633 31.9792 147.448 32.4115 147.406 32.9375H150.961C150.935 32.401 150.76 31.9661 150.438 31.6328C150.12 31.2995 149.708 31.1328 149.203 31.1328ZM150.992 35.4375H153.086C152.961 36.2604 152.549 36.9245 151.852 37.4297C151.159 37.9297 150.297 38.1797 149.266 38.1797C147.979 38.1797 146.969 37.7943 146.234 37.0234C145.505 36.2526 145.141 35.1953 145.141 33.8516C145.141 32.513 145.505 31.4453 146.234 30.6484C146.964 29.8464 147.945 29.4453 149.18 29.4453C150.393 29.4453 151.359 29.8255 152.078 30.5859C152.797 31.3464 153.156 32.3646 153.156 33.6406V34.3359H147.383V34.4766C147.383 35.0755 147.557 35.5625 147.906 35.9375C148.26 36.3073 148.727 36.4922 149.305 36.4922C149.721 36.4922 150.081 36.3984 150.383 36.2109C150.685 36.0182 150.888 35.7604 150.992 35.4375ZM161.945 32.7422H159.828C159.76 32.2891 159.581 31.9245 159.289 31.6484C159.003 31.3724 158.63 31.2344 158.172 31.2344C157.604 31.2344 157.156 31.4635 156.828 31.9219C156.505 32.375 156.344 33.0026 156.344 33.8047C156.344 34.6224 156.505 35.2578 156.828 35.7109C157.156 36.1641 157.607 36.3906 158.18 36.3906C158.633 36.3906 159.003 36.263 159.289 36.0078C159.576 35.7474 159.755 35.388 159.828 34.9297H161.953C161.896 35.9193 161.523 36.7083 160.836 37.2969C160.148 37.8854 159.255 38.1797 158.156 38.1797C156.885 38.1797 155.88 37.7917 155.141 37.0156C154.401 36.2344 154.031 35.1641 154.031 33.8047C154.031 32.4661 154.401 31.4062 155.141 30.625C155.885 29.8385 156.885 29.4453 158.141 29.4453C159.255 29.4453 160.154 29.7526 160.836 30.3672C161.523 30.9818 161.893 31.7734 161.945 32.7422ZM165.422 32.9844L168.266 29.625H170.852L167.656 33.2188L171.008 38H168.383L165.984 34.5938L165.391 35.2344V38H163.109V26.7266H165.391V32.9844H165.422Z" fill="white"/>
<circle cx="28.3165" cy="26.7704" r="5.34212" fill="url(#paint0_radial_4641_94)"/>
<g opacity="0.67" filter="url(#filter0_f_4641_94)">
<path d="M39.6346 27.4885C43.2124 30.7174 51.6084 34.1413 48.3795 37.7191C45.1506 41.2968 26.6949 51.517 19.0105 47.5666C15.4328 44.3377 22.2159 33.9411 25.4448 30.3633C28.6737 26.7855 36.0568 24.2596 39.6346 27.4885Z" fill="url(#paint1_linear_4641_94)" fill-opacity="0.3"/>
</g>
<g filter="url(#filter1_ii_4641_94)">
<path fill-rule="evenodd" clip-rule="evenodd" d="M34.098 41.4326V41.4329H27.0729C23.5763 41.4329 20.7417 38.5983 20.7417 35.1017C20.7417 31.605 23.5763 28.7705 27.0729 28.7705H27.4199C28.6471 28.7705 29.797 29.1015 30.7852 29.6792C32.0699 25.8732 35.6693 23.1328 39.9088 23.1328H40.3858C45.4391 23.1328 49.5357 27.2293 49.5357 32.2827C49.5357 37.3361 45.4391 41.4326 40.3858 41.4326H34.098Z" fill="white"/>
</g>
<defs>
<filter id="filter0_f_4641_94" x="-19.881" y="-11.8745" width="106.862" height="98.2113" filterUnits="userSpaceOnUse" color-interpolation-filters="sRGB">
<feFlood flood-opacity="0" result="BackgroundImageFix"/>
<feBlend mode="normal" in="SourceGraphic" in2="BackgroundImageFix" result="shape"/>
<feGaussianBlur stdDeviation="18.9384" result="effect1_foregroundBlur_4641_94"/>
</filter>
<filter id="filter1_ii_4641_94" x="5.59088" y="10.5071" width="50.6784" height="40.1846" filterUnits="userSpaceOnUse" color-interpolation-filters="sRGB">
<feFlood flood-opacity="0" result="BackgroundImageFix"/>
<feBlend mode="normal" in="SourceGraphic" in2="BackgroundImageFix" result="shape"/>
<feColorMatrix in="SourceAlpha" type="matrix" values="0 0 0 0 0 0 0 0 0 0 0 0 0 0 0 0 0 0 127 0" result="hardAlpha"/>
<feOffset dx="6.73367" dy="-12.6256"/>
<feGaussianBlur stdDeviation="12.6256"/>
<feComposite in2="hardAlpha" operator="arithmetic" k2="-1" k3="1"/>
<feColorMatrix type="matrix" values="0 0 0 0 0 0 0 0 0 0 0 0 0 0 0 0 0 0 0.2 0"/>
<feBlend mode="normal" in2="shape" result="effect1_innerShadow_4641_94"/>
<feColorMatrix in="SourceAlpha" type="matrix" values="0 0 0 0 0 0 0 0 0 0 0 0 0 0 0 0 0 0 127 0" result="hardAlpha"/>
<feOffset dx="-15.1508" dy="9.2588"/>
<feGaussianBlur stdDeviation="12.6256"/>
<feComposite in2="hardAlpha" operator="arithmetic" k2="-1" k3="1"/>
<feColorMatrix type="matrix" values="0 0 0 0 1 0 0 0 0 1 0 0 0 0 1 0 0 0 1 0"/>
<feBlend mode="normal" in2="effect1_innerShadow_4641_94" result="effect2_innerShadow_4641_94"/>
</filter>
<radialGradient id="paint0_radial_4641_94" cx="0" cy="0" r="1" gradientUnits="userSpaceOnUse" gradientTransform="translate(30.4421 23.8584) rotate(132.136) scale(11.1308 11.1308)">
<stop stop-color="#FFF72C"/>
<stop offset="1" stop-color="#DF7800"/>
</radialGradient>
<linearGradient id="paint1_linear_4641_94" x1="22.8101" y1="49.1486" x2="43.5919" y2="25.826" gradientUnits="userSpaceOnUse">
<stop stop-color="#254659"/>
<stop offset="1" stop-color="#023553"/>
</linearGradient>
</defs>
</svg>
